<mxfile host="app.diagrams.net" agent="Mozilla/5.0 (X11; Linux x86_64; rv:143.0) Gecko/20100101 Firefox/143.0" version="28.2.7">
  <diagram name="Page 1" id="Page-1">
    <mxGraphModel dx="1360" dy="765" grid="1" gridSize="10" guides="1" tooltips="1" connect="1" arrows="1" fold="1" page="1" pageScale="1" pageWidth="827" pageHeight="1169" math="1" shadow="0">
      <root>
        <mxCell id="0" />
        <mxCell id="1" parent="0" />
        <mxCell id="Knx10nlY82T_n9evqUdS-34" value="&lt;div align=&quot;right&quot;&gt;V&lt;sub&gt;ent&lt;/sub&gt;&lt;/div&gt;" style="text;html=1;whiteSpace=wrap;strokeColor=none;fillColor=none;align=right;verticalAlign=middle;rounded=0;fontFamily=Helvetica;fontSize=11;fontColor=default;labelBackgroundColor=default;convertToSvg=1;" parent="1" vertex="1">
          <mxGeometry x="20" y="225" width="23" height="30" as="geometry" />
        </mxCell>
        <mxCell id="Knx10nlY82T_n9evqUdS-73" value="V&lt;sub&gt;sor&lt;/sub&gt;" style="text;html=1;whiteSpace=wrap;strokeColor=none;fillColor=none;align=center;verticalAlign=middle;rounded=0;fontFamily=Helvetica;fontSize=11;fontColor=default;labelBackgroundColor=default;convertToSvg=1;" parent="1" vertex="1">
          <mxGeometry x="300" y="225" width="40" height="30" as="geometry" />
        </mxCell>
        <mxCell id="Knx10nlY82T_n9evqUdS-48" value="V&lt;sub&gt;R&lt;/sub&gt;" style="text;html=1;whiteSpace=wrap;strokeColor=none;fillColor=none;align=center;verticalAlign=middle;rounded=0;convertToSvg=1;" parent="1" vertex="1">
          <mxGeometry x="532" y="179.94999999999996" width="20" height="20" as="geometry" />
        </mxCell>
        <mxCell id="Knx10nlY82T_n9evqUdS-49" value="V&lt;sub&gt;sor&lt;/sub&gt;" style="text;html=1;whiteSpace=wrap;strokeColor=none;fillColor=none;align=center;verticalAlign=middle;rounded=0;convertToSvg=1;" parent="1" vertex="1">
          <mxGeometry x="375" y="270" width="20" height="20" as="geometry" />
        </mxCell>
        <mxCell id="Knx10nlY82T_n9evqUdS-50" value="V&lt;sub&gt;ent&lt;/sub&gt;" style="text;html=1;whiteSpace=wrap;strokeColor=none;fillColor=none;align=center;verticalAlign=middle;rounded=0;convertToSvg=1;" parent="1" vertex="1">
          <mxGeometry x="532" y="265" width="20" height="20" as="geometry" />
        </mxCell>
        <mxCell id="Knx10nlY82T_n9evqUdS-43" value="$$\theta$$" style="text;html=1;whiteSpace=wrap;strokeColor=none;fillColor=none;align=center;verticalAlign=middle;rounded=0;" parent="1" vertex="1">
          <mxGeometry x="434" y="201.94999999999996" width="20" height="20" as="geometry" />
        </mxCell>
        <mxCell id="Knx10nlY82T_n9evqUdS-54" value="$$\phi$$" style="text;html=1;whiteSpace=wrap;strokeColor=none;fillColor=none;align=center;verticalAlign=middle;rounded=0;convertToSvg=0;" parent="1" vertex="1">
          <mxGeometry x="395" y="214.99999999999997" width="40" height="20" as="geometry" />
        </mxCell>
        <mxCell id="Knx10nlY82T_n9evqUdS-36" value="" style="pointerEvents=1;verticalLabelPosition=bottom;shadow=0;dashed=0;align=center;html=1;verticalAlign=top;shape=mxgraph.electrical.signal_sources.source;aspect=fixed;points=[[0.5,0,0],[1,0.5,0],[0.5,1,0],[0,0.5,0]];elSignalType=ac;convertToSvg=1;" parent="1" vertex="1">
          <mxGeometry x="50" y="210" width="60" height="60" as="geometry" />
        </mxCell>
        <mxCell id="Knx10nlY82T_n9evqUdS-37" value="R" style="pointerEvents=1;verticalLabelPosition=bottom;shadow=0;dashed=0;align=center;html=1;verticalAlign=top;shape=mxgraph.electrical.resistors.resistor_2;convertToSvg=1;" parent="1" vertex="1">
          <mxGeometry x="122" y="150" width="100" height="20" as="geometry" />
        </mxCell>
        <mxCell id="Knx10nlY82T_n9evqUdS-66" value="" style="edgeStyle=orthogonalEdgeStyle;shape=connector;rounded=0;orthogonalLoop=1;jettySize=auto;html=1;strokeColor=default;align=center;verticalAlign=middle;fontFamily=Helvetica;fontSize=11;fontColor=default;labelBackgroundColor=default;endArrow=none;endFill=0;" parent="1" source="Knx10nlY82T_n9evqUdS-38" target="Knx10nlY82T_n9evqUdS-65" edge="1">
          <mxGeometry relative="1" as="geometry" />
        </mxCell>
        <mxCell id="Knx10nlY82T_n9evqUdS-38" value="C" style="pointerEvents=1;verticalLabelPosition=bottom;shadow=0;dashed=0;align=left;html=1;verticalAlign=middle;shape=mxgraph.electrical.capacitors.capacitor_1;rotation=90;horizontal=0;convertToSvg=1;" parent="1" vertex="1">
          <mxGeometry x="200" y="209.78" width="100" height="60" as="geometry" />
        </mxCell>
        <mxCell id="Knx10nlY82T_n9evqUdS-41" style="edgeStyle=orthogonalEdgeStyle;shape=connector;rounded=0;orthogonalLoop=1;jettySize=auto;html=1;exitX=0;exitY=0.5;exitDx=0;exitDy=0;exitPerimeter=0;entryX=0.5;entryY=0;entryDx=0;entryDy=0;entryPerimeter=0;strokeColor=default;align=center;verticalAlign=middle;fontFamily=Helvetica;fontSize=11;fontColor=default;labelBackgroundColor=default;endArrow=none;endFill=0;convertToSvg=1;" parent="1" source="Knx10nlY82T_n9evqUdS-37" target="Knx10nlY82T_n9evqUdS-36" edge="1">
          <mxGeometry relative="1" as="geometry" />
        </mxCell>
        <mxCell id="Knx10nlY82T_n9evqUdS-44" value="" style="edgeStyle=none;orthogonalLoop=1;jettySize=auto;html=1;rounded=0;" parent="1" edge="1">
          <mxGeometry width="80" relative="1" as="geometry">
            <mxPoint x="400" y="199.94999999999996" as="sourcePoint" />
            <mxPoint x="560" y="199.94999999999996" as="targetPoint" />
            <Array as="points" />
          </mxGeometry>
        </mxCell>
        <mxCell id="Knx10nlY82T_n9evqUdS-45" value="" style="edgeStyle=none;orthogonalLoop=1;jettySize=auto;html=1;rounded=0;" parent="1" edge="1">
          <mxGeometry width="80" relative="1" as="geometry">
            <mxPoint x="400" y="199.94999999999996" as="sourcePoint" />
            <mxPoint x="400" y="299.95" as="targetPoint" />
            <Array as="points" />
          </mxGeometry>
        </mxCell>
        <mxCell id="Knx10nlY82T_n9evqUdS-46" value="" style="edgeStyle=none;orthogonalLoop=1;jettySize=auto;html=1;rounded=0;" parent="1" edge="1">
          <mxGeometry width="80" relative="1" as="geometry">
            <mxPoint x="400" y="199.94999999999996" as="sourcePoint" />
            <mxPoint x="560" y="299.95" as="targetPoint" />
            <Array as="points" />
          </mxGeometry>
        </mxCell>
        <mxCell id="Knx10nlY82T_n9evqUdS-47" value="" style="curved=1;endArrow=none;html=1;rounded=0;endFill=0;" parent="1" edge="1">
          <mxGeometry width="50" height="50" relative="1" as="geometry">
            <mxPoint x="430" y="218.94999999999996" as="sourcePoint" />
            <mxPoint x="434" y="199.94999999999996" as="targetPoint" />
            <Array as="points">
              <mxPoint x="439" y="210.94999999999996" />
            </Array>
          </mxGeometry>
        </mxCell>
        <mxCell id="Knx10nlY82T_n9evqUdS-51" value="" style="edgeStyle=none;orthogonalLoop=1;jettySize=auto;html=1;rounded=0;endArrow=none;endFill=0;dashed=1;" parent="1" edge="1">
          <mxGeometry width="80" relative="1" as="geometry">
            <mxPoint x="400" y="299.71" as="sourcePoint" />
            <mxPoint x="560" y="299.95" as="targetPoint" />
            <Array as="points" />
          </mxGeometry>
        </mxCell>
        <mxCell id="Knx10nlY82T_n9evqUdS-52" value="" style="edgeStyle=none;orthogonalLoop=1;jettySize=auto;html=1;rounded=0;endArrow=none;endFill=0;dashed=1;" parent="1" edge="1">
          <mxGeometry width="80" relative="1" as="geometry">
            <mxPoint x="560" y="199.45999999999995" as="sourcePoint" />
            <mxPoint x="560" y="299.95" as="targetPoint" />
            <Array as="points" />
          </mxGeometry>
        </mxCell>
        <mxCell id="Knx10nlY82T_n9evqUdS-53" value="" style="curved=1;endArrow=none;html=1;rounded=0;endFill=0;" parent="1" edge="1">
          <mxGeometry width="50" height="50" relative="1" as="geometry">
            <mxPoint x="400" y="223.94999999999996" as="sourcePoint" />
            <mxPoint x="416" y="210" as="targetPoint" />
            <Array as="points">
              <mxPoint x="414" y="220" />
            </Array>
          </mxGeometry>
        </mxCell>
        <mxCell id="Knx10nlY82T_n9evqUdS-58" value="" style="verticalLabelPosition=bottom;shadow=0;dashed=0;align=center;html=1;verticalAlign=top;strokeWidth=1;shape=ellipse;perimeter=ellipsePerimeter;" parent="1" vertex="1">
          <mxGeometry x="312" y="152.5" width="15" height="15" as="geometry" />
        </mxCell>
        <mxCell id="Knx10nlY82T_n9evqUdS-67" style="edgeStyle=orthogonalEdgeStyle;shape=connector;rounded=0;orthogonalLoop=1;jettySize=auto;html=1;exitX=0;exitY=0.5;exitDx=0;exitDy=0;strokeColor=default;align=center;verticalAlign=middle;fontFamily=Helvetica;fontSize=11;fontColor=default;labelBackgroundColor=default;endArrow=none;endFill=0;entryX=0.5;entryY=1;entryDx=0;entryDy=0;entryPerimeter=0;" parent="1" source="Knx10nlY82T_n9evqUdS-59" target="Knx10nlY82T_n9evqUdS-36" edge="1">
          <mxGeometry relative="1" as="geometry" />
        </mxCell>
        <mxCell id="Knx10nlY82T_n9evqUdS-59" value="" style="verticalLabelPosition=bottom;shadow=0;dashed=0;align=center;html=1;verticalAlign=top;strokeWidth=1;shape=ellipse;perimeter=ellipsePerimeter;" parent="1" vertex="1">
          <mxGeometry x="312" y="312" width="15" height="15" as="geometry" />
        </mxCell>
        <mxCell id="Knx10nlY82T_n9evqUdS-65" value="" style="shape=waypoint;sketch=0;size=6;pointerEvents=1;points=[];fillColor=default;resizable=0;rotatable=0;perimeter=centerPerimeter;snapToPoint=1;align=left;shadow=0;dashed=0;horizontal=0;" parent="1" vertex="1">
          <mxGeometry x="240" y="309.5" width="20" height="20" as="geometry" />
        </mxCell>
        <mxCell id="Knx10nlY82T_n9evqUdS-70" value="" style="edgeStyle=orthogonalEdgeStyle;shape=connector;rounded=0;orthogonalLoop=1;jettySize=auto;html=1;strokeColor=default;align=center;verticalAlign=middle;fontFamily=Helvetica;fontSize=11;fontColor=default;labelBackgroundColor=default;endArrow=none;endFill=0;" parent="1" source="Knx10nlY82T_n9evqUdS-69" target="Knx10nlY82T_n9evqUdS-37" edge="1">
          <mxGeometry relative="1" as="geometry" />
        </mxCell>
        <mxCell id="Knx10nlY82T_n9evqUdS-71" value="" style="edgeStyle=orthogonalEdgeStyle;shape=connector;rounded=0;orthogonalLoop=1;jettySize=auto;html=1;strokeColor=default;align=center;verticalAlign=middle;fontFamily=Helvetica;fontSize=11;fontColor=default;labelBackgroundColor=default;endArrow=none;endFill=0;" parent="1" source="Knx10nlY82T_n9evqUdS-69" target="Knx10nlY82T_n9evqUdS-58" edge="1">
          <mxGeometry relative="1" as="geometry" />
        </mxCell>
        <mxCell id="Knx10nlY82T_n9evqUdS-72" value="" style="edgeStyle=orthogonalEdgeStyle;shape=connector;rounded=0;orthogonalLoop=1;jettySize=auto;html=1;strokeColor=default;align=center;verticalAlign=middle;fontFamily=Helvetica;fontSize=11;fontColor=default;labelBackgroundColor=default;endArrow=none;endFill=0;" parent="1" source="Knx10nlY82T_n9evqUdS-69" target="Knx10nlY82T_n9evqUdS-38" edge="1">
          <mxGeometry relative="1" as="geometry" />
        </mxCell>
        <mxCell id="Knx10nlY82T_n9evqUdS-69" value="" style="shape=waypoint;sketch=0;fillStyle=solid;size=6;pointerEvents=1;points=[];fillColor=none;resizable=0;rotatable=0;perimeter=centerPerimeter;snapToPoint=1;fontFamily=Helvetica;fontSize=11;fontColor=default;labelBackgroundColor=default;" parent="1" vertex="1">
          <mxGeometry x="240" y="150" width="20" height="20" as="geometry" />
        </mxCell>
      </root>
    </mxGraphModel>
  </diagram>
</mxfile>
